<svg id="svg" version="1.1" xmlns="http://www.w3.org/2000/svg" xmlns:xlink="http://www.w3.org/1999/xlink" width="400" height="400" viewBox="0, 0, 400,400"><g id="svgg"><path id="path0" d="M239.605 14.642 C 235.890 15.641,234.602 17.193,233.215 22.343 C 232.684 24.316,230.525 26.621,228.867 26.985 C 228.218 27.128,226.835 27.784,225.795 28.444 L 223.903 29.644 224.171 31.722 C 224.957 37.816,226.102 38.628,234.727 39.210 C 244.535 39.872,245.073 40.072,250.034 44.875 L 253.467 48.200 254.962 52.865 C 257.705 61.429,258.089 74.458,255.776 80.441 C 253.472 86.401,253.145 86.532,239.967 86.795 L 229.735 87.000 228.270 88.118 C 227.465 88.733,226.722 89.633,226.619 90.118 C 225.339 96.156,225.200 97.772,225.203 106.543 C 225.207 119.386,225.872 123.361,228.263 124.839 L 229.710 125.733 263.355 125.643 L 297.000 125.553 298.443 124.608 C 300.626 123.180,300.846 121.861,301.155 108.400 C 301.630 87.661,301.187 86.806,289.953 86.791 C 280.298 86.778,278.382 85.746,277.954 80.329 C 277.639 76.344,277.878 75.829,280.777 74.251 L 282.855 73.120 291.128 73.308 C 301.264 73.539,302.856 73.911,305.769 76.726 C 306.886 77.806,308.628 79.243,309.639 79.922 C 311.925 81.454,312.582 82.442,313.391 85.565 C 314.739 90.768,314.866 92.187,315.178 105.600 C 315.673 126.894,314.094 125.337,335.390 125.520 C 350.520 125.649,350.512 125.650,351.832 123.469 C 352.986 121.562,353.440 24.464,352.313 20.600 C 351.134 16.555,350.515 15.869,347.150 14.872 L 344.200 13.997 293.000 14.025 C 249.207 14.049,241.483 14.138,239.605 14.642 M344.549 20.941 C 345.515 21.678,347.137 22.491,348.153 22.746 C 349.731 23.144,350.877 24.400,349.661 24.400 C 349.475 24.400,348.907 24.760,348.400 25.200 C 347.893 25.640,347.235 26.000,346.939 26.000 C 346.642 26.000,346.400 26.147,346.400 26.326 C 346.400 26.506,345.700 27.046,344.846 27.526 L 343.291 28.400 303.573 28.400 C 258.330 28.400,257.663 28.433,255.185 30.815 C 252.321 33.566,245.013 35.137,242.066 33.634 C 241.160 33.171,239.199 32.533,237.709 32.215 C 236.219 31.897,234.018 31.299,232.818 30.886 L 230.637 30.136 232.512 29.664 C 234.772 29.095,235.552 28.063,235.952 25.112 C 236.307 22.496,236.594 22.000,237.752 22.000 C 239.055 22.000,242.268 20.841,242.824 20.171 C 243.230 19.682,250.443 19.600,293.046 19.600 L 342.793 19.600 344.549 20.941 M165.000 52.750 C 158.080 53.471,156.808 56.508,156.787 72.349 C 156.772 84.619,156.184 89.533,154.522 91.309 C 152.839 93.106,149.999 94.797,148.622 94.822 C 147.950 94.834,146.590 95.153,145.600 95.531 L 143.800 96.219 143.543 98.610 C 142.975 103.906,143.164 122.970,143.794 123.870 C 146.059 127.104,208.663 126.524,210.361 123.253 C 211.212 121.614,211.600 116.602,211.600 107.251 C 211.600 89.155,212.897 82.780,217.161 79.922 C 218.172 79.243,219.900 77.825,221.000 76.769 C 223.407 74.460,226.056 73.702,232.987 73.342 C 237.482 73.108,240.678 72.159,242.489 70.519 C 244.067 69.092,242.971 57.785,241.049 55.662 C 240.582 55.146,239.390 54.246,238.400 53.662 L 236.600 52.600 202.000 52.550 C 182.970 52.522,166.320 52.612,165.000 52.750 M237.120 56.480 C 237.732 57.092,237.754 62.932,237.159 66.934 L 236.718 69.901 227.459 70.109 C 218.129 70.320,215.559 70.623,210.800 72.079 C 208.613 72.748,206.359 72.929,196.600 73.223 C 181.723 73.670,181.069 73.867,179.447 78.379 C 179.035 79.523,178.228 81.018,177.654 81.701 C 176.243 83.377,176.064 85.716,176.028 102.871 L 176.000 116.742 172.792 117.979 C 169.606 119.208,169.531 119.216,161.892 119.217 C 157.661 119.218,153.660 119.312,153.000 119.428 C 150.837 119.806,145.819 119.888,144.927 119.561 C 144.356 119.351,143.986 119.406,143.858 119.720 C 143.751 119.984,143.655 116.150,143.644 111.200 C 143.622 100.647,143.473 101.059,147.399 100.853 C 151.270 100.649,154.400 99.076,154.400 97.335 C 154.400 96.729,156.071 95.810,157.881 95.421 C 162.148 94.502,162.400 93.262,162.400 73.207 C 162.400 61.104,162.522 56.838,162.880 56.480 C 163.576 55.784,236.424 55.784,237.120 56.480 M270.859 82.400 C 271.235 83.390,271.763 84.799,272.033 85.531 C 273.070 88.349,275.955 89.135,286.804 89.555 C 292.469 89.775,295.272 90.038,295.864 90.408 C 296.885 91.046,297.446 95.354,297.004 99.165 L 296.735 101.481 292.268 101.739 C 289.810 101.881,279.970 102.008,270.400 102.022 C 249.968 102.052,249.747 102.075,247.666 104.329 C 246.826 105.238,245.494 106.252,244.706 106.581 C 242.091 107.674,241.401 108.987,241.004 113.634 L 240.744 116.668 238.872 117.586 C 237.569 118.226,235.935 118.582,233.493 118.760 L 229.986 119.015 229.595 117.607 C 228.284 112.888,229.370 92.454,231.020 90.801 L 232.017 89.801 243.109 89.540 C 249.874 89.381,254.824 89.090,255.800 88.795 C 258.360 88.020,260.192 86.945,260.670 85.936 C 260.915 85.421,261.616 83.958,262.230 82.685 L 263.346 80.371 266.760 80.485 L 270.175 80.600 270.859 82.400 M26.479 103.047 C 24.218 103.439,23.241 103.832,22.151 104.789 C 21.377 105.469,19.766 106.577,18.570 107.252 C 15.673 108.886,14.934 109.921,14.599 112.811 C 13.810 119.605,15.597 122.910,21.600 125.764 L 24.200 127.000 41.000 126.967 C 59.528 126.931,63.293 126.582,67.600 124.505 C 69.184 123.742,70.696 123.382,73.000 123.222 L 76.200 123.000 76.470 121.200 C 76.619 120.210,76.754 117.300,76.770 114.732 L 76.800 110.065 73.904 107.422 C 69.728 103.610,68.494 103.111,62.851 102.945 C 48.269 102.518,29.220 102.571,26.479 103.047 M137.853 123.906 C 138.102 124.068,138.309 124.830,138.314 125.600 C 138.343 130.610,138.154 130.157,141.127 132.319 C 142.779 133.521,144.367 135.101,145.153 136.327 C 145.868 137.441,147.116 138.768,147.926 139.276 L 149.400 140.200 263.400 140.400 L 377.400 140.600 379.027 141.471 C 381.518 142.804,381.695 143.158,381.008 145.440 C 380.473 147.217,380.037 149.812,378.764 158.800 C 378.135 163.242,377.287 166.333,376.019 168.800 C 374.376 171.998,373.718 174.551,372.786 181.345 C 371.577 190.153,370.911 193.062,369.385 196.200 C 367.596 199.880,367.023 202.243,365.808 210.943 C 364.689 218.951,364.241 220.746,362.491 224.234 C 360.967 227.273,360.233 230.333,359.189 238.000 C 358.157 245.583,357.493 248.331,355.989 251.257 C 354.427 254.292,353.393 258.564,352.420 266.000 C 351.575 272.454,350.537 276.808,349.448 278.470 C 348.506 279.909,347.263 283.754,346.769 286.758 C 345.282 295.816,344.561 297.085,339.750 299.107 L 336.200 300.600 236.309 300.707 L 136.419 300.814 135.340 299.107 C 134.345 297.534,134.203 296.759,133.528 289.216 C 132.720 280.186,131.970 275.296,130.812 271.505 C 129.192 266.202,128.412 260.228,127.201 243.872 C 126.275 231.378,125.559 225.959,124.183 221.065 C 122.469 214.963,121.584 208.100,120.589 193.200 C 119.778 181.050,119.098 175.875,117.409 169.000 C 115.671 161.928,114.969 156.771,114.196 145.406 C 113.551 135.925,113.560 135.803,115.188 130.800 C 115.582 129.590,116.003 127.610,116.123 126.400 L 116.343 124.200 115.556 126.800 C 115.124 128.230,114.344 130.210,113.823 131.200 C 112.042 134.585,111.918 135.785,112.563 143.298 C 112.889 147.094,113.270 152.000,113.408 154.200 C 113.805 160.504,115.126 170.227,116.184 174.632 C 118.075 182.507,118.799 187.992,119.801 202.040 C 120.608 213.357,121.377 219.308,122.998 226.800 C 124.908 235.624,125.349 238.957,126.808 255.600 C 127.752 266.367,128.425 271.231,129.797 277.188 C 130.964 282.255,131.826 287.565,132.381 293.109 C 132.803 297.319,133.482 299.254,135.466 301.900 L 136.441 303.200 233.320 303.193 C 340.109 303.185,333.367 303.345,340.000 300.658 C 345.024 298.623,345.612 297.907,347.142 291.954 C 347.842 289.229,348.968 285.560,349.643 283.800 C 351.470 279.041,352.654 274.348,353.379 268.989 C 354.182 263.061,355.330 258.320,356.802 254.854 C 358.329 251.261,359.101 248.109,360.032 241.676 C 361.055 234.612,361.678 232.008,363.399 227.602 C 365.291 222.761,365.802 220.672,366.804 213.699 C 367.824 206.599,368.454 204.008,370.185 199.800 C 371.757 195.979,372.422 193.133,373.766 184.491 C 374.337 180.822,375.241 176.721,375.839 175.091 C 378.459 167.948,378.876 166.475,379.638 161.685 C 381.045 152.836,381.860 149.078,382.981 146.280 C 384.222 143.183,384.178 142.881,382.271 141.427 C 378.506 138.555,389.475 138.803,264.910 138.771 C 146.251 138.740,149.629 138.794,148.034 136.895 C 147.465 136.218,146.300 134.826,145.445 133.801 C 144.562 132.743,143.005 131.503,141.843 130.933 L 139.796 129.930 139.819 126.765 L 139.842 123.600 138.621 123.606 C 137.950 123.609,137.604 123.744,137.853 123.906 " stroke="none" fill="#f4a361" fill-rule="evenodd"></path><path id="path1" d="M223.200 1.542 L 223.200 3.084 220.399 3.319 C 218.859 3.448,217.419 3.665,217.199 3.800 C 216.947 3.956,216.800 8.814,216.800 17.011 L 216.800 29.975 187.261 30.088 C 166.975 30.165,157.547 30.335,157.161 30.630 C 156.853 30.866,155.845 31.276,154.921 31.540 C 153.004 32.088,151.734 33.476,151.369 35.426 L 151.116 36.771 147.458 36.886 L 143.800 37.000 143.434 40.300 L 143.067 43.600 140.634 43.606 C 136.640 43.616,137.015 40.967,136.889 70.085 C 136.821 85.897,136.925 96.108,137.161 96.600 C 137.372 97.040,137.750 98.072,138.001 98.894 C 138.520 100.589,139.874 101.821,141.647 102.210 C 143.216 102.555,143.198 102.585,143.481 99.201 C 143.755 95.941,144.265 95.489,148.413 94.834 C 155.398 93.729,156.765 90.060,156.787 72.349 C 156.805 58.310,157.358 56.165,161.600 53.662 L 163.400 52.600 200.000 52.600 L 236.600 52.600 238.400 53.662 C 239.390 54.246,240.582 55.146,241.049 55.662 C 242.971 57.785,244.067 69.092,242.489 70.519 C 240.678 72.159,237.482 73.108,232.987 73.342 C 226.056 73.702,223.407 74.460,221.000 76.769 C 219.900 77.825,218.172 79.243,217.161 79.922 C 212.897 82.780,211.600 89.155,211.600 107.251 C 211.600 112.894,211.402 118.494,211.150 119.967 C 210.167 125.717,211.208 125.547,176.200 125.680 C 142.968 125.807,143.709 125.897,143.213 121.707 L 143.000 119.904 141.600 121.380 C 140.830 122.191,139.840 123.011,139.400 123.202 C 138.832 123.449,138.780 123.557,139.221 123.575 C 139.730 123.595,139.838 124.171,139.819 126.765 L 139.796 129.930 141.843 130.933 C 143.005 131.503,144.562 132.743,145.445 133.801 C 146.300 134.826,147.465 136.218,148.034 136.895 C 149.629 138.794,146.251 138.740,264.910 138.771 C 389.475 138.803,378.506 138.555,382.271 141.427 C 384.178 142.881,384.222 143.183,382.981 146.280 C 381.860 149.078,381.045 152.836,379.638 161.685 C 378.876 166.475,378.459 167.948,375.839 175.091 C 375.241 176.721,374.337 180.822,373.766 184.491 C 372.422 193.133,371.757 195.979,370.185 199.800 C 368.454 204.008,367.824 206.599,366.804 213.699 C 365.802 220.672,365.291 222.761,363.399 227.602 C 361.678 232.008,361.055 234.612,360.032 241.676 C 359.101 248.109,358.329 251.261,356.802 254.854 C 355.330 258.320,354.182 263.061,353.379 268.989 C 352.654 274.348,351.470 279.041,349.643 283.800 C 348.968 285.560,347.842 289.229,347.142 291.954 C 345.612 297.907,345.024 298.623,340.000 300.658 C 333.367 303.345,340.109 303.185,233.320 303.193 L 136.441 303.200 135.466 301.900 C 133.482 299.254,132.803 297.319,132.381 293.109 C 131.826 287.565,130.964 282.255,129.797 277.188 C 128.425 271.231,127.752 266.367,126.808 255.600 C 125.349 238.957,124.908 235.624,122.998 226.800 C 121.377 219.308,120.608 213.357,119.801 202.040 C 118.799 187.992,118.075 182.507,116.184 174.632 C 115.126 170.227,113.805 160.504,113.408 154.200 C 113.270 152.000,112.889 147.094,112.563 143.298 C 111.918 135.793,112.042 134.599,113.816 131.200 C 116.387 126.275,116.922 122.975,116.689 113.486 C 116.442 103.447,116.496 103.603,113.251 103.594 C 110.036 103.585,110.112 103.729,109.938 97.306 C 109.753 90.495,109.736 90.465,105.713 90.128 L 102.890 89.892 102.710 87.725 C 102.337 83.228,105.088 83.486,55.800 83.314 C 12.307 83.162,10.437 83.204,10.122 84.331 C 10.019 84.699,9.185 85.360,8.268 85.800 C 7.074 86.373,6.373 87.072,5.800 88.260 C 4.958 90.006,4.140 90.400,1.350 90.400 L 0.000 90.400 0.000 113.600 L 0.000 136.800 1.546 136.800 L 3.093 136.800 3.289 139.545 C 3.550 143.196,3.555 143.200,6.983 143.200 L 9.919 143.200 10.198 145.983 C 10.374 147.730,10.710 148.959,11.100 149.283 C 11.794 149.859,69.270 150.301,77.104 149.790 C 83.468 149.375,83.000 150.451,83.000 136.222 C 83.000 122.290,83.780 123.769,76.239 123.403 L 70.600 123.129 68.000 124.351 C 63.213 126.601,59.817 126.930,41.000 126.967 L 24.200 127.000 21.600 125.764 C 15.597 122.910,13.810 119.605,14.599 112.811 C 14.934 109.921,15.673 108.886,18.570 107.252 C 19.766 106.577,21.372 105.473,22.140 104.799 C 24.571 102.665,27.079 102.471,48.600 102.755 C 70.328 103.042,68.797 102.761,73.868 107.389 L 76.729 110.000 80.127 110.000 L 83.525 110.000 83.809 112.065 C 84.179 114.755,85.237 115.820,87.907 116.187 L 89.943 116.467 90.072 132.469 L 90.200 148.471 91.144 149.236 C 91.664 149.656,92.390 150.000,92.758 150.000 C 93.126 150.000,93.725 150.503,94.088 151.119 C 94.452 151.734,95.211 152.485,95.775 152.786 L 96.800 153.335 96.810 176.168 C 96.821 203.839,96.628 202.552,100.849 203.035 L 103.098 203.292 103.318 227.346 C 103.583 256.301,103.466 255.576,107.998 256.200 L 110.000 256.475 110.000 276.638 L 110.000 296.800 107.280 296.800 C 104.148 296.800,103.600 297.162,103.600 299.230 C 103.600 300.038,103.492 301.239,103.360 301.898 L 103.121 303.096 97.660 303.378 C 90.772 303.734,90.577 303.844,90.202 307.581 L 89.919 310.400 88.185 310.400 C 83.929 310.400,83.640 311.093,83.318 322.085 L 83.075 330.369 80.927 330.815 C 75.884 331.862,75.581 339.226,80.382 344.065 L 83.089 346.793 83.286 354.637 C 83.512 363.635,83.301 363.185,87.300 363.194 L 90.000 363.200 90.000 366.120 C 90.000 369.785,90.215 370.000,93.880 370.000 L 96.800 370.000 96.806 372.700 C 96.815 376.626,96.541 376.471,103.911 376.706 L 110.312 376.911 110.565 378.823 C 111.033 382.348,112.851 383.150,120.466 383.187 L 123.132 383.200 123.414 386.212 C 123.746 389.759,124.011 390.000,127.574 390.000 L 130.000 390.000 130.006 392.700 C 130.014 396.290,130.128 396.411,133.740 396.684 L 136.800 396.915 136.800 398.458 L 136.800 400.000 160.000 400.000 L 183.200 400.000 183.200 398.200 L 183.200 396.400 185.951 396.400 C 189.376 396.400,189.663 396.096,189.913 392.194 L 190.104 389.217 191.481 388.958 C 193.456 388.588,195.121 387.039,195.439 385.276 C 195.585 384.464,195.848 383.617,196.024 383.393 C 196.199 383.170,196.467 381.460,196.618 379.593 L 196.892 376.200 200.246 376.577 L 203.600 376.954 203.600 379.200 C 203.600 383.438,197.759 382.985,253.906 383.106 L 303.077 383.212 303.498 384.135 C 303.729 384.642,303.839 385.854,303.742 386.829 C 303.493 389.327,303.867 389.669,307.101 389.900 L 309.894 390.100 310.136 392.696 C 310.471 396.283,310.769 396.552,314.091 396.274 L 316.800 396.047 316.800 398.023 L 316.800 400.000 336.600 400.000 L 356.400 400.000 356.400 398.200 L 356.400 396.400 358.924 396.400 C 362.946 396.400,362.977 396.347,363.129 389.250 L 363.257 383.234 366.118 383.117 C 370.242 382.948,370.034 383.872,369.906 366.314 C 369.784 349.423,370.054 350.524,365.936 350.140 L 363.317 349.895 363.078 345.143 C 362.705 337.721,362.278 337.295,354.846 336.922 L 350.081 336.682 349.934 333.768 C 349.739 329.902,351.154 330.216,333.267 330.074 C 310.235 329.892,310.685 329.813,310.219 334.164 L 309.940 336.767 306.870 336.884 L 303.800 337.000 303.443 340.057 L 303.086 343.114 301.643 343.353 C 300.849 343.484,299.651 343.593,298.980 343.596 C 296.926 343.603,296.800 344.012,296.800 350.680 L 296.800 356.800 247.224 356.800 C 207.999 356.800,197.581 356.904,197.329 357.300 C 196.971 357.863,196.477 355.222,196.430 352.490 C 196.394 350.461,195.618 350.000,192.236 350.000 L 190.124 350.000 189.862 344.529 C 189.504 337.072,189.247 336.800,182.537 336.800 C 180.022 336.800,177.040 334.288,176.568 331.771 C 176.231 329.975,176.558 330.008,159.400 330.030 C 137.110 330.058,137.467 329.988,136.962 334.458 L 136.697 336.800 133.762 336.800 C 130.243 336.800,130.000 337.069,130.000 340.974 L 130.000 343.600 127.249 343.600 C 123.718 343.600,123.751 343.546,123.369 350.000 C 123.132 354.000,122.983 354.956,122.796 353.685 C 122.367 350.787,120.402 350.068,112.760 350.018 L 110.121 350.000 109.894 343.780 C 109.769 340.359,109.767 335.871,109.890 333.806 L 110.114 330.051 112.668 329.778 C 115.826 329.440,116.400 328.783,116.400 325.511 L 116.400 323.200 232.324 323.200 C 324.432 323.200,348.387 323.097,348.930 322.700 C 349.402 322.354,349.690 321.366,349.864 319.500 L 350.116 316.800 352.008 316.800 C 354.740 316.800,356.344 316.399,356.600 315.652 C 356.723 315.294,357.581 314.640,358.506 314.200 C 359.733 313.617,360.404 312.946,360.983 311.724 C 361.419 310.802,362.089 309.965,362.471 309.865 C 363.049 309.714,363.186 309.119,363.283 306.342 L 363.400 303.000 365.551 302.737 C 369.580 302.246,369.968 300.761,369.988 285.743 C 370.001 275.614,369.905 276.000,372.410 276.000 C 375.815 276.000,376.308 274.111,376.660 259.742 L 376.915 249.284 378.437 249.040 C 382.480 248.394,383.200 245.789,383.200 231.811 L 383.200 221.687 384.169 221.443 C 385.476 221.116,387.495 219.369,387.825 218.282 C 387.972 217.797,388.476 216.981,388.946 216.468 C 389.768 215.572,389.805 215.122,389.923 204.598 L 390.047 193.659 391.876 191.829 C 392.882 190.823,393.997 189.997,394.353 189.994 C 396.426 189.974,396.700 187.984,396.762 172.500 L 396.800 163.200 398.400 163.200 L 400.000 163.200 400.000 140.000 L 400.000 116.800 385.000 116.800 L 370.000 116.800 370.000 60.833 C 370.000 30.051,369.895 4.592,369.767 4.257 C 369.599 3.820,368.645 3.572,366.367 3.373 L 363.200 3.097 363.200 1.548 L 363.200 0.000 293.200 0.000 L 223.200 0.000 223.200 1.542 M347.150 14.872 C 350.515 15.869,351.134 16.555,352.313 20.600 C 353.440 24.464,352.986 121.562,351.832 123.469 C 350.512 125.650,350.520 125.649,335.390 125.520 C 314.094 125.337,315.673 126.894,315.178 105.600 C 314.866 92.187,314.739 90.768,313.391 85.565 C 312.582 82.442,311.925 81.454,309.639 79.922 C 308.628 79.243,306.886 77.806,305.769 76.726 C 302.856 73.911,301.264 73.539,291.128 73.308 L 282.855 73.120 280.777 74.251 C 277.878 75.829,277.639 76.344,277.954 80.329 C 278.382 85.746,280.298 86.778,289.953 86.791 C 301.187 86.806,301.630 87.661,301.155 108.400 C 300.846 121.861,300.626 123.180,298.443 124.608 L 297.000 125.553 263.355 125.643 L 229.710 125.733 228.263 124.839 C 225.872 123.361,225.207 119.386,225.203 106.543 C 225.200 97.772,225.339 96.156,226.619 90.118 C 226.722 89.633,227.465 88.733,228.270 88.118 L 229.735 87.000 239.967 86.795 C 253.145 86.532,253.472 86.401,255.776 80.441 C 258.089 74.458,257.705 61.429,254.962 52.865 L 253.467 48.200 250.034 44.875 C 245.073 40.072,244.535 39.872,234.727 39.210 C 226.102 38.628,224.957 37.816,224.171 31.722 L 223.903 29.644 225.795 28.444 C 226.835 27.784,228.218 27.128,228.867 26.985 C 230.525 26.621,232.684 24.316,233.215 22.343 C 233.983 19.493,235.486 16.493,236.469 15.849 C 239.229 14.040,238.801 14.054,293.000 14.025 L 344.200 13.997 347.150 14.872 " stroke="none" fill="#121213" fill-rule="evenodd"></path><path id="path2" d="M127.200 123.590 L 116.600 123.800 116.530 125.200 C 116.491 125.970,116.550 126.285,116.659 125.900 C 116.842 125.257,117.676 125.200,126.829 125.200 L 136.800 125.200 136.800 127.727 C 136.800 135.131,138.742 139.604,142.800 141.547 L 145.000 142.600 256.067 142.800 C 317.153 142.910,367.255 143.122,367.405 143.271 C 368.078 143.945,365.053 151.209,363.171 153.434 C 361.729 155.140,360.927 156.664,359.785 159.867 C 358.579 163.253,357.954 164.405,356.554 165.826 C 355.599 166.794,354.182 168.872,353.406 170.443 C 352.630 172.014,351.051 174.325,349.897 175.578 C 348.744 176.831,347.039 179.297,346.110 181.058 C 344.944 183.266,343.798 184.782,342.416 185.948 C 341.313 186.878,339.946 188.431,339.378 189.401 C 338.810 190.371,337.476 191.789,336.414 192.552 C 335.352 193.314,334.150 194.434,333.742 195.040 C 332.868 196.338,329.879 199.326,327.839 200.941 C 327.046 201.568,326.085 202.610,325.704 203.256 C 325.322 203.901,323.911 205.146,322.569 206.020 C 321.226 206.895,319.552 208.413,318.848 209.394 C 317.899 210.714,316.741 211.606,314.385 212.832 C 312.634 213.743,310.112 215.461,308.779 216.650 C 307.447 217.839,305.104 219.443,303.573 220.214 C 302.041 220.985,300.004 222.389,299.046 223.334 C 298.087 224.279,296.425 225.381,295.352 225.784 C 292.083 227.011,289.477 228.435,287.885 229.864 C 285.963 231.590,283.862 232.556,279.659 233.644 C 277.329 234.248,275.817 234.913,274.659 235.843 C 271.893 238.067,270.260 238.748,265.123 239.823 C 261.184 240.646,259.308 241.295,255.739 243.068 C 251.640 245.104,250.862 245.344,246.139 246.025 C 240.295 246.868,235.736 247.894,230.102 249.634 C 214.277 254.523,144.878 255.030,135.146 250.328 C 134.197 249.870,132.678 249.176,131.770 248.787 C 129.755 247.923,129.603 247.202,129.593 238.444 C 129.567 214.915,128.508 206.536,125.108 202.940 L 123.078 200.793 122.760 182.897 C 122.315 157.783,121.658 153.292,118.091 151.000 C 116.406 149.917,116.289 148.910,116.459 136.868 C 116.537 131.373,116.468 127.084,116.306 127.338 C 116.144 127.592,116.009 128.222,116.006 128.738 C 116.003 129.254,115.613 130.950,115.140 132.507 C 113.525 137.825,115.039 158.090,117.597 165.400 C 119.345 170.395,119.998 176.002,121.578 199.600 C 122.097 207.346,123.002 213.599,123.982 216.200 C 126.007 221.577,126.860 228.053,127.804 245.200 C 128.544 258.632,129.203 263.964,130.797 269.400 C 132.513 275.253,133.205 279.908,134.010 291.000 C 134.388 296.214,134.576 297.224,135.444 298.708 L 136.443 300.415 236.321 300.303 L 336.200 300.191 339.768 298.747 C 344.455 296.850,344.605 296.560,346.766 285.200 C 347.314 282.318,348.006 280.153,348.971 278.303 C 350.793 274.807,351.369 272.448,352.401 264.261 C 353.296 257.161,354.267 253.248,355.791 250.600 C 357.258 248.053,357.964 245.110,359.005 237.200 C 360.089 228.970,360.729 226.364,362.406 223.353 C 364.038 220.424,364.667 217.873,365.598 210.400 C 366.606 202.308,367.595 198.205,369.222 195.361 C 370.642 192.880,371.635 188.523,372.606 180.518 C 373.354 174.345,374.286 170.805,375.930 167.896 C 377.378 165.332,378.115 162.126,379.167 153.800 C 379.611 150.280,380.243 146.514,380.569 145.432 C 381.280 143.076,381.267 143.050,378.785 141.792 L 376.827 140.800 263.197 140.800 C 152.292 140.800,149.533 140.782,148.084 140.039 C 146.432 139.192,145.340 138.087,144.092 136.000 C 143.632 135.230,142.748 134.298,142.128 133.930 C 138.975 132.055,137.963 130.376,137.874 126.872 C 137.807 124.263,137.910 123.589,138.396 123.457 C 138.922 123.314,138.923 123.298,138.400 123.336 C 138.070 123.360,133.030 123.474,127.200 123.590 M137.000 124.400 C 136.846 124.649,132.996 124.800,126.776 124.800 C 120.392 124.800,116.800 124.656,116.800 124.400 C 116.800 124.144,120.475 124.000,127.024 124.000 C 133.737 124.000,137.162 124.137,137.000 124.400 " stroke="none" fill="#ccf4fc" fill-rule="evenodd"></path><path id="path3" d="M242.824 20.171 C 242.268 20.841,239.055 22.000,237.752 22.000 C 236.594 22.000,236.307 22.496,235.952 25.112 C 235.552 28.063,234.772 29.095,232.512 29.664 L 230.637 30.136 232.818 30.886 C 234.018 31.299,236.219 31.897,237.709 32.215 C 239.199 32.533,241.160 33.171,242.066 33.634 C 245.013 35.137,252.321 33.566,255.185 30.815 C 257.663 28.433,258.330 28.400,303.573 28.400 L 343.291 28.400 344.846 27.526 C 345.700 27.046,346.400 26.506,346.400 26.326 C 346.400 26.147,346.642 26.000,346.939 26.000 C 347.235 26.000,347.893 25.640,348.400 25.200 C 348.907 24.760,349.475 24.400,349.661 24.400 C 350.877 24.400,349.731 23.144,348.153 22.746 C 347.137 22.491,345.515 21.678,344.549 20.941 L 342.793 19.600 293.046 19.600 C 250.443 19.600,243.230 19.682,242.824 20.171 M162.880 56.480 C 162.522 56.838,162.400 61.104,162.400 73.207 C 162.400 93.262,162.148 94.502,157.881 95.421 C 156.071 95.810,154.400 96.729,154.400 97.335 C 154.400 99.076,151.270 100.649,147.399 100.853 C 143.473 101.059,143.622 100.647,143.644 111.200 C 143.655 116.150,143.751 119.984,143.858 119.720 C 143.986 119.406,144.356 119.351,144.927 119.561 C 145.819 119.888,150.837 119.806,153.000 119.428 C 153.660 119.312,157.661 119.218,161.892 119.217 C 169.531 119.216,169.606 119.208,172.792 117.979 L 176.000 116.742 176.028 102.871 C 176.064 85.716,176.243 83.377,177.654 81.701 C 178.228 81.018,179.035 79.523,179.447 78.379 C 181.069 73.867,181.723 73.670,196.600 73.223 C 206.359 72.929,208.613 72.748,210.800 72.079 C 215.559 70.623,218.129 70.320,227.459 70.109 L 236.718 69.901 237.159 66.934 C 237.754 62.932,237.732 57.092,237.120 56.480 C 236.424 55.784,163.576 55.784,162.880 56.480 M262.230 82.685 C 261.616 83.958,260.915 85.421,260.670 85.936 C 260.192 86.945,258.360 88.020,255.800 88.795 C 254.824 89.090,249.874 89.381,243.109 89.540 L 232.017 89.801 231.020 90.801 C 229.370 92.454,228.284 112.888,229.595 117.607 L 229.986 119.015 233.493 118.760 C 235.935 118.582,237.569 118.226,238.872 117.586 L 240.744 116.668 241.004 113.634 C 241.401 108.987,242.091 107.674,244.706 106.581 C 245.494 106.252,246.826 105.238,247.666 104.329 C 249.747 102.075,249.968 102.052,270.400 102.022 C 279.970 102.008,289.810 101.881,292.268 101.739 L 296.735 101.481 297.004 99.165 C 297.446 95.354,296.885 91.046,295.864 90.408 C 295.272 90.038,292.469 89.775,286.804 89.555 C 275.955 89.135,273.070 88.349,272.033 85.531 C 271.763 84.799,271.235 83.390,270.859 82.400 L 270.175 80.600 266.760 80.485 L 263.346 80.371 262.230 82.685 M137.959 128.373 C 137.692 129.888,139.537 132.353,142.149 133.970 C 142.837 134.396,143.741 135.342,144.158 136.072 C 145.275 138.029,146.418 139.185,148.084 140.039 C 149.534 140.782,152.192 140.798,263.284 140.702 L 377.000 140.605 263.200 140.402 L 149.400 140.200 147.926 139.276 C 147.116 138.768,145.868 137.441,145.153 136.327 C 144.370 135.106,142.781 133.522,141.149 132.336 C 138.626 130.500,138.436 130.255,138.322 128.684 L 138.200 127.000 137.959 128.373 M115.273 130.471 C 113.486 136.551,113.542 135.783,114.197 145.414 C 114.969 156.770,115.671 161.929,117.409 169.000 C 119.098 175.875,119.778 181.050,120.589 193.200 C 121.581 208.059,122.490 215.127,124.153 220.892 C 125.416 225.275,126.299 231.630,127.212 242.912 C 127.957 252.121,127.961 252.147,127.768 246.000 C 127.315 231.636,126.052 221.698,123.982 216.200 C 123.002 213.599,122.097 207.346,121.578 199.600 C 119.998 176.002,119.345 170.395,117.597 165.400 C 115.018 158.030,113.525 137.824,115.162 132.434 C 115.647 130.838,115.985 129.354,115.912 129.137 C 115.840 128.920,115.552 129.520,115.273 130.471 M378.872 141.812 C 381.284 143.068,381.236 142.929,380.380 146.200 C 379.976 147.740,379.653 149.540,379.661 150.200 C 379.669 150.888,379.906 150.290,380.215 148.800 C 380.512 147.370,380.941 145.584,381.169 144.831 C 381.470 143.838,381.456 143.309,381.119 142.902 C 380.626 142.308,377.850 140.787,377.316 140.819 C 377.142 140.829,377.843 141.276,378.872 141.812 M379.293 152.800 C 379.293 153.570,379.375 153.885,379.476 153.500 C 379.576 153.115,379.576 152.485,379.476 152.100 C 379.375 151.715,379.293 152.030,379.293 152.800 M378.893 156.400 C 378.893 157.170,378.975 157.485,379.076 157.100 C 379.176 156.715,379.176 156.085,379.076 155.700 C 378.975 155.315,378.893 155.630,378.893 156.400 M375.855 168.041 C 374.696 170.103,373.183 174.789,373.222 176.199 C 373.234 176.639,373.582 175.711,373.995 174.136 C 374.408 172.560,375.320 170.168,376.022 168.819 C 377.566 165.853,377.433 165.234,375.855 168.041 M372.893 178.400 C 372.893 179.170,372.975 179.485,373.076 179.100 C 373.176 178.715,373.176 178.085,373.076 177.700 C 372.975 177.315,372.893 177.630,372.893 178.400 M372.493 181.600 C 372.493 182.370,372.575 182.685,372.676 182.300 C 372.776 181.915,372.776 181.285,372.676 180.900 C 372.575 180.515,372.493 180.830,372.493 181.600 M369.109 195.568 C 367.596 198.645,366.217 203.561,366.534 204.749 C 366.662 205.229,366.719 205.185,366.754 204.584 C 366.857 202.768,368.105 198.835,369.446 196.102 C 370.228 194.508,370.808 193.053,370.734 192.869 C 370.660 192.685,369.929 193.900,369.109 195.568 M366.093 206.800 C 366.093 207.570,366.175 207.885,366.276 207.500 C 366.376 207.115,366.376 206.485,366.276 206.100 C 366.175 205.715,366.093 206.030,366.093 206.800 M365.693 210.000 C 365.693 210.770,365.775 211.085,365.876 210.700 C 365.976 210.315,365.976 209.685,365.876 209.300 C 365.775 208.915,365.693 209.230,365.693 210.000 M362.307 223.540 C 360.814 226.602,359.576 230.919,359.652 232.800 C 359.684 233.583,359.728 233.627,359.856 233.000 C 360.741 228.668,361.508 226.180,362.670 223.866 C 363.426 222.363,363.989 220.986,363.922 220.807 C 363.855 220.628,363.128 221.858,362.307 223.540 M359.293 235.200 C 359.293 235.970,359.375 236.285,359.476 235.900 C 359.576 235.515,359.576 234.885,359.476 234.500 C 359.375 234.115,359.293 234.430,359.293 235.200 M357.200 247.344 C 357.200 247.643,356.680 248.862,356.044 250.054 C 354.766 252.448,353.186 257.204,353.224 258.542 C 353.238 259.014,353.605 258.074,354.040 256.454 C 354.475 254.834,355.353 252.494,355.992 251.254 C 357.179 248.951,357.880 246.800,357.443 246.800 C 357.310 246.800,357.200 247.045,357.200 247.344 M128.114 254.600 C 128.117 255.700,128.195 256.103,128.287 255.495 C 128.379 254.886,128.377 253.986,128.282 253.495 C 128.187 253.003,128.111 253.500,128.114 254.600 M128.493 258.800 C 128.493 259.570,128.575 259.885,128.676 259.500 C 128.776 259.115,128.776 258.485,128.676 258.100 C 128.575 257.715,128.493 258.030,128.493 258.800 M128.893 262.000 C 128.893 262.770,128.975 263.085,129.076 262.700 C 129.176 262.315,129.176 261.685,129.076 261.300 C 128.975 260.915,128.893 261.230,128.893 262.000 M352.493 263.600 C 352.493 264.370,352.575 264.685,352.676 264.300 C 352.776 263.915,352.776 263.285,352.676 262.900 C 352.575 262.515,352.493 262.830,352.493 263.600 M352.093 266.800 C 352.093 267.570,352.175 267.885,352.276 267.500 C 352.376 267.115,352.376 266.485,352.276 266.100 C 352.175 265.715,352.093 266.030,352.093 266.800 M129.821 267.400 C 129.958 268.280,130.501 270.530,131.027 272.400 C 131.553 274.270,132.240 277.510,132.552 279.600 C 132.865 281.690,133.139 282.833,133.161 282.140 C 133.226 280.033,131.677 271.986,130.593 268.800 C 129.899 266.763,129.651 266.314,129.821 267.400 M349.140 277.901 C 348.068 279.820,346.785 283.618,346.818 284.773 C 346.828 285.118,347.254 284.110,347.764 282.534 C 348.275 280.958,349.091 279.023,349.579 278.234 C 350.067 277.444,350.406 276.620,350.333 276.401 C 350.260 276.182,349.723 276.857,349.140 277.901 M133.320 285.600 C 133.320 286.810,133.395 287.305,133.487 286.700 C 133.578 286.095,133.578 285.105,133.487 284.500 C 133.395 283.895,133.320 284.390,133.320 285.600 M133.724 290.200 C 133.726 291.520,133.801 292.012,133.890 291.293 C 133.979 290.574,133.977 289.494,133.886 288.893 C 133.795 288.292,133.722 288.880,133.724 290.200 M134.101 295.400 C 134.105 296.280,134.187 296.593,134.283 296.095 C 134.379 295.598,134.375 294.878,134.275 294.495 C 134.175 294.113,134.096 294.520,134.101 295.400 M341.000 298.214 C 340.000 298.696,339.966 298.751,340.800 298.548 C 341.933 298.271,343.207 297.621,342.600 297.630 C 342.380 297.633,341.660 297.896,341.000 298.214 M135.700 299.600 L 136.298 300.600 236.049 300.600 C 333.008 300.600,335.853 300.579,337.709 299.842 C 338.759 299.425,339.543 299.010,339.452 298.919 C 339.361 298.828,338.592 299.079,337.743 299.477 C 336.269 300.168,331.717 300.205,236.408 300.308 L 136.615 300.415 135.858 299.508 L 135.102 298.600 135.700 299.600 " stroke="none" fill="#fcbc7c" fill-rule="evenodd"></path><path id="path4" d="M121.900 123.499 C 124.815 123.567,129.585 123.567,132.500 123.499 C 135.415 123.431,133.030 123.375,127.200 123.375 C 121.370 123.375,118.985 123.431,121.900 123.499 M116.800 124.400 C 116.800 124.656,120.392 124.800,126.776 124.800 C 132.996 124.800,136.846 124.649,137.000 124.400 C 137.162 124.137,133.737 124.000,127.024 124.000 C 120.475 124.000,116.800 124.144,116.800 124.400 M116.723 125.900 C 116.426 127.124,116.317 147.352,116.600 148.805 C 116.783 149.749,117.269 150.459,118.104 151.000 C 121.659 153.307,122.316 157.807,122.760 182.897 L 123.078 200.793 125.108 202.940 C 128.508 206.536,129.567 214.915,129.593 238.444 C 129.603 247.202,129.755 247.923,131.770 248.787 C 132.678 249.176,134.197 249.870,135.146 250.328 C 144.878 255.030,214.277 254.523,230.102 249.634 C 235.736 247.894,240.295 246.868,246.139 246.025 C 250.862 245.344,251.640 245.104,255.739 243.068 C 259.308 241.295,261.184 240.646,265.123 239.823 C 270.260 238.748,271.893 238.067,274.659 235.843 C 275.817 234.913,277.329 234.248,279.659 233.644 C 283.862 232.556,285.963 231.590,287.885 229.864 C 289.477 228.435,292.083 227.011,295.352 225.784 C 296.425 225.381,298.087 224.279,299.046 223.334 C 300.004 222.389,302.041 220.985,303.573 220.214 C 305.104 219.443,307.447 217.839,308.779 216.650 C 310.112 215.461,312.634 213.743,314.385 212.832 C 316.741 211.606,317.899 210.714,318.848 209.394 C 319.552 208.413,321.226 206.895,322.569 206.020 C 323.911 205.146,325.322 203.901,325.704 203.256 C 326.085 202.610,327.046 201.568,327.839 200.941 C 329.879 199.326,332.868 196.338,333.742 195.040 C 334.150 194.434,335.352 193.314,336.414 192.552 C 337.476 191.789,338.810 190.371,339.378 189.401 C 339.946 188.431,341.313 186.878,342.416 185.948 C 343.798 184.782,344.944 183.266,346.110 181.058 C 347.039 179.297,348.744 176.831,349.897 175.578 C 351.051 174.325,352.630 172.014,353.406 170.443 C 354.182 168.872,355.599 166.794,356.554 165.826 C 357.954 164.405,358.579 163.253,359.785 159.867 C 360.927 156.664,361.729 155.140,363.171 153.434 C 365.053 151.209,368.078 143.945,367.405 143.271 C 367.255 143.122,317.153 142.910,256.067 142.800 L 145.000 142.600 142.800 141.547 C 138.742 139.604,136.800 135.131,136.800 127.727 L 136.800 125.200 126.847 125.200 C 117.699 125.200,116.880 125.257,116.723 125.900 " stroke="none" fill="#e3f4fc" fill-rule="evenodd"></path></g></svg>